inDegrees=yes
name=ik_lifting_orientations
DataType=double
version=3
OpenSimVersion=4.5-2024-01-10-34fd6af
endheader
time	pelvis_tilt	pelvis_list	pelvis_rotation	pelvis_tx	pelvis_ty	pelvis_tz	hip_flexion_r	hip_adduction_r	hip_rotation_r	knee_angle_r	knee_angle_r_beta	ankle_angle_r	subtalar_angle_r	mtp_angle_r	hip_flexion_l	hip_adduction_l	hip_rotation_l	knee_angle_l	knee_angle_l_beta	ankle_angle_l	subtalar_angle_l	mtp_angle_l	lumbar_extension	lumbar_bending	lumbar_rotation	arm_flex_r	arm_add_r	arm_rot_r	elbow_flex_r	pro_sup_r	wrist_flex_r	wrist_dev_r	arm_flex_l	arm_add_l	arm_rot_l	elbow_flex_l	pro_sup_l	wrist_flex_l	wrist_dev_l
0.02	0.0008770604227276755	0.00509167570188677	88.90811157934405	0	0.9399999998679526	0	44.47251434368084	-10.58159125976423	0	60.25929578100449	1.051723116311656	-5.163007624371427	0	0	44.47251434368084	-10.58159125976423	0	60.25929578100449	1.051723116311656	-5.163007624371427	0	0	-0.003360948390519878	0.0006207493866726478	0.01006080521576471	-0.2415488523837192	-0.05434100581432063	0.006441395982274197	0.4839922507505359	1.543672499961072	0	0	0	-10.71324216064453	0	88.43147130322585	1.543672499961072	0	0
0.03	-0.05086226207277426	0.6587032073023933	89.02262574364795	0	0.9399999998679526	0	44.47267784210394	-10.58096063075897	0	60.25923278943674	1.051722016901398	-5.162777059703465	0	0	44.47267784210394	-10.58096063075897	0	60.25923278943674	1.051722016901398	-5.162777059703465	0	0	0.03524021946004655	-0.3658841601315809	0.2363344360023194	-0.7541500353131475	0.09195843690188332	-0.4734378404061539	1.175922273893645	1.543339625401191	0	0	0	-10.71392304508904	0	88.43180950296974	1.543339625401191	0	0
0.04	-0.4015987539583206	1.518564334382706	90.58801065755668	0	0.9399999998679526	0	44.47281324117853	-10.58044950853751	0	60.2591797561138	1.051721091295299	-5.162591000604428	0	0	44.47281324117853	-10.58044950853751	0	60.2591797561138	1.051721091295299	-5.162591000604428	0	0	-0.8226428751593674	-0.6975796812278652	-1.310138266793475	-0.7817780965899871	0.08904113371274075	-0.497773933070532	1.191864038821952	1.543062174797632	0	0	0	-10.71449364110974	0	88.43209139199318	1.543062174797632	0	0
0.05	-0.3986090514744211	1.534897190138147	90.58740869022731	0	0.9399999998679526	0	44.47616938607801	-10.57174345563024	0	60.25752829576188	1.051692267874692	-5.159688396782791	0	0	44.47616938607801	-10.57174345563024	0	60.25752829576188	1.051692267874692	-5.159688396782791	0	0	-0.8643784143215574	-0.7063351008532482	-1.317591427862239	-0.6706496839549273	0.06102427965127514	-0.1160741959010948	2.349514556434146	1.535507780926158	0	0	0	-10.73120810282674	0	88.43976659091501	1.535507780926158	0	0
0.06	-0.4074944692733815	1.512010283113869	90.60566642280985	0	0.9399999998679526	0	44.47631350766945	-10.57119282970553	0	60.25747279744771	1.051691299246381	-5.159487766491749	0	0	44.47631350766945	-10.57119282970553	0	60.25747279744771	1.051691299246381	-5.159487766491749	0	0	-0.05557318925208701	-1.066277059715229	-1.655867719014896	-1.431643745550998	0.23169091495415	0.2663495337672456	2.729613763509045	1.535213939883533	0	0	0	-10.73180968049612	0	88.44006513266268	1.535213939883533	0	0
0.07000000000000001	-0.3982295636620827	1.51244712526229	90.59993042896852	0	0.9399999998679526	0	44.48572829619225	-10.53920637328867	0	60.25381607933465	1.051627477475491	-5.148347253173685	0	0	44.48572829619225	-10.53920637328867	0	60.25381607933465	1.051627477475491	-5.148347253173685	0	0	-0.03451155286862401	-1.046463719525885	-1.642484180485301	-1.461400005680501	0.2202428762055715	0.2600286307920539	2.740618457547624	1.515727223391718	0	0	0	-10.77206169868787	0	88.45986356410246	1.515727223391718	0	0
0.08	-1.371022378900761	2.054441538766563	91.3801848137275	0	0.9399999998679526	0	44.48585716280722	-10.53873785963913	0	60.25376588785227	1.051626601468866	-5.148179400434312	0	0	44.48585716280722	-10.53873785963913	0	60.25376588785227	1.051626601468866	-5.148179400434312	0	0	-0.6365368646955749	-1.996385583505327	-2.387180179577002	-1.29112413269503	0.08252379545901013	0.0881834315209508	3.577935419308488	1.515462285515483	0	0	0	-10.77260723788663	0	88.46013274015213	1.515462285515483	0	0
0.09	-1.492345305053103	2.985577288797375	91.38055880917483	0	0.9399999998679526	0	44.4860431393431	-10.53805957906286	0	60.25369365950036	1.051625340846312	-5.147936275575798	0	0	44.4860431393431	-10.53805957906286	0	60.25369365950036	1.051625340846312	-5.147936275575798	0	0	-0.7949000933112831	-2.461700258864085	-2.686454859953973	-2.166927947227884	0.3553861941905458	0.4375599843405145	3.649581687162625	1.51508033549936	0	0	0	-10.77339301714928	0	88.46052080019257	1.51508033549936	0	0
0.1	-2.421904318154051	2.836106017507724	92.06786424049405	0	0.9399999998679526	0	44.48950362973389	-10.52936905137186	0	60.25199460069754	1.051595686676018	-5.145075769427244	0	0	44.48950362973389	-10.52936905137186	0	60.25199460069754	1.051595686676018	-5.145075769427244	0	0	-0.376738650824699	-4.431020577333724	-3.754571058994435	-2.474178995162615	1.023929219640918	0.7954817447472191	4.985110034069105	1.507260672018109	0	0	0	-10.7907326555644	0	88.46846550928913	1.507260672018109	0	0
0.11	-2.603668769374629	4.421422965261999	92.19065486083409	0	0.9399999998679526	0	44.48969688019294	-10.52867077968881	0	60.25191960625725	1.051594377776114	-5.144826330082438	0	0	44.48969688019294	-10.52867077968881	0	60.25191960625725	1.051594377776114	-5.144826330082438	0	0	-1.960160741611712	-4.545162173417364	-3.8568001742705	-2.411540390789948	0.6471859622779317	1.484494725457069	4.964040649065792	1.50686324924616	0	0	0	-10.79155094347049	0	88.46886928955446	1.50686324924616	0	0
0.12	-3.861281731678301	6.796843776994058	93.03755739348885	0	0.9399999998679526	0	44.49010768112741	-10.52720038845341	0	60.25175966361002	1.051591586250306	-5.144302715898306	0	0	44.49010768112741	-10.52720038845341	0	60.25175966361002	1.051591586250306	-5.144302715898306	0	0	-4.45311801972676	-5.660727923216018	-4.653598284192853	-2.413737257011688	0.6658906386740494	1.501195454865524	4.951156513052118	1.506017048437675	0	0	0	-10.79329521293626	0	88.46972902678934	1.506017048437675	0	0
0.13	-3.867912564201209	6.799838326860663	93.04720398795712	0	0.9399999998679526	0	44.49104590446295	-10.52428435387067	0	60.25139248439883	1.051585177764126	-5.143321743111308	0	0	44.49104590446295	-10.52428435387067	0	60.25139248439883	1.051585177764126	-5.143321743111308	0	0	-4.429748520348016	-5.651126828070011	-4.652661808350328	-2.369800811044215	0.6914287955244646	1.477558579111248	4.874846568014354	1.504051905601176	0	0	0	-10.7973841989299	0	88.47172560297686	1.504051905601176	0	0
0.14	-5.558796340380373	9.007558804178348	95.59684837903069	0	0.9399999998679526	0	44.49148123739379	-10.52273572198753	0	60.25122287180937	1.051582217465987	-5.142771517890822	0	0	44.49148123739379	-10.52273572198753	0	60.25122287180937	1.051582217465987	-5.142771517890822	0	0	-7.055931091384201	-6.92672318469568	-7.131486809270676	-2.332566068241432	0.7094631414994568	1.485324656690162	4.867866015237475	1.503154402175106	0	0	0	-10.79923519992466	0	88.47263746344761	1.503154402175106	0	0
0.15	-8.001738525362429	11.68757133199406	97.45400617556811	0	0.9399999998679526	0	44.49205838988772	-10.52069358471398	0	60.25099767834617	1.0515782870986	-5.142047338031683	0	0	44.49205838988772	-10.52069358471398	0	60.25099767834617	1.0515782870986	-5.142047338031683	0	0	-10.46546167637493	-7.639652137461523	-9.942914039549379	-1.786186211406901	-0.890876222427054	2.668338783398778	4.481470577073988	1.501963501107122	0	0	0	-10.80169269620229	0	88.47384741487664	1.501963501107122	0	0
0.16	-10.17055258232492	14.71883835633818	100.3222154524378	0	0.9399999998679526	0	44.49921383743644	-10.50356011666864	0	60.2474526778452	1.051516415167873	-5.136501593018993	0	0	44.49921383743644	-10.50356011666864	0	60.2474526778452	1.051516415167873	-5.136501593018993	0	0	-14.8800038453512	-8.236332968535553	-12.42548442408037	-0.9383887065105523	-1.431288939533332	2.740681452310851	6.182296845805348	1.485671326790365	0	0	0	-10.83800210528367	0	88.49040011368345	1.485671326790365	0	0
0.17	-12.78373248353926	16.65088191920872	102.3286242013367	0	0.9399999998679526	0	44.49991090125833	-10.50114618810445	0	60.24718087589766	1.051511671328975	-5.135652014898296	0	0	44.49991090125833	-10.50114618810445	0	60.24718087589766	1.051511671328975	-5.135652014898296	0	0	-18.97307402156554	-7.763386595191063	-15.55162148002895	1.138862489846331	-3.59335926503167	3.976238014645336	5.796212962599883	1.48422819028848	0	0	0	-10.84098650905657	0	88.49186633505354	1.48422819028848	0	0
0.18	-13.56892764559968	17.34696710422554	104.1827678305637	0	0.9399999998679526	0	44.50009526606437	-10.50050718785561	0	60.24710884165636	1.051510414094291	-5.135426903780218	0	0	44.50009526606437	-10.50050718785561	0	60.24710884165636	1.051510414094291	-5.135426903780218	0	0	-20.85397782047561	-6.17126380362914	-16.61969523391095	2.29825373271787	-4.90386596958532	3.250641720707256	5.797974929569808	1.483846245192178	0	0	0	-10.84177698660058	0	88.49225438984436	1.483846245192178	0	0
0.19	-14.96068733793764	18.4889032790447	105.2662049850495	0	0.9399999998679526	0	44.50875399486855	-10.48009511615168	0	60.24291736807769	1.051437259079832	-5.128901080402062	0	0	44.50875399486855	-10.48009511615168	0	60.24291736807769	1.051437259079832	-5.128901080402062	0	0	-25.19108128806459	-3.287512296171989	-11.72688986999331	6.28027378687557	-8.031699410899181	-2.65427302805503	4.777667515443488	1.464167411203281	0	0	0	-10.88553149401078	0	88.51224790678027	1.464167411203281	0	0
0.2	-17.91766897226246	23.97998579134535	107.5850986616424	0	0.9399999998679526	0	44.50904038671537	-10.47912535273345	0	60.24280558426258	1.051435308084208	-5.128562097780859	0	0	44.50904038671537	-10.47912535273345	0	60.24280558426258	1.051435308084208	-5.128562097780859	0	0	-33.01156228875382	-1.768544976986598	-10.92054030986105	7.997865302599619	-10.00770943287049	-5.142463669076855	5.657601027947236	1.463571909991205	0	0	0	-10.88676685731732	0	88.5128529336058	1.463571909991205	0	0
0.21	-19.36629752496783	25.56233528975473	109.9491749615584	0	0.9399999998679526	0	44.50966204086847	-10.47703083175889	0	60.2425633924255	1.05143108103923	-5.127831965971257	0	0	44.50966204086847	-10.47703083175889	0	60.2425633924255	1.05143108103923	-5.127831965971257	0	0	-35.58475190055159	0.7774765144953869	-10.48351501900661	8.647249847412354	-12.51618101863148	-7.127065858963181	6.097314765358388	1.462279569298169	0	0	0	-10.8894463546734	0	88.51416594655642	1.462279569298169	0	0
